# xmcd
#
# Track frame offsets:
#	183
#	19478
#	55225
#	73903
#	98198
#	105270
#	119100
#	135020
#	149640
#	168438
#	176363
#	190608
#	205068
#	223083
#	240045
#	267340
#	278365
#
# Disc length: 3899 seconds
#
# Revision: 0
# Processed by: cddbd v1.4PL0 Copyright (c) Steve Scherf et al.
# Submitted via: dBpowerAMP V4.0
#
DISCID=f10f3911
DTITLE=Henri Texier - Selected by Henri Texier
DYEAR=1888
DGENRE=Blues
TTITLE0=Amir
TTITLE1=Le sage, le singe et les petits enfants
TTITLE2=Hommage
TTITLE3=Homme rouge
TTITLE4=Quand tout s'arrête
TTITLE5=Les la-bas
TTITLE6=Quand le blues s'en ira
TTITLE7=L'éléphant
TTITLE8=Varech
TTITLE9=Angèle
TTITLE10=L'ultime danse
TTITLE11=Luce d'alba
TTITLE12=Kan al labour
TTITLE13=Hocoka
TTITLE14=Blues urbain
TTITLE15=Chemin de vie
TTITLE16=Mektoub
EXTD=
EXTT0=
EXTT1=
EXTT2=
EXTT3=
EXTT4=
EXTT5=
EXTT6=
EXTT7=
EXTT8=
EXTT9=
EXTT10=
EXTT11=
EXTT12=
EXTT13=
EXTT14=
EXTT15=
EXTT16=
PLAYORDER=
